<?xml version="1.0" encoding="UTF-8"?>
<svg xmlns="http://www.w3.org/2000/svg" viewBox="0 8.859999656677246 247.1199951171875 46.34000015258789" width="247.12" height="46.34" preserveAspectRatio="xMidYMid meet">
  <!-- Transparent background -->
  <!-- Brand paths (converted text) -->
  <g fill="#eb3678">
    <g transform="translate(0, 0)">
      <path d="M0 45.26L0 9.47L7.13 9.47L15.60 34.81Q16.77 38.35 17.31 40.11Q17.92 38.16 19.21 34.38L27.78 9.47L34.16 9.47L34.16 45.26L29.59 45.26L29.59 15.31L19.19 45.26L14.92 45.26L4.57 14.79L4.57 45.26L0 45.26ZM58.98 36.91L63.53 37.48Q62.45 41.46 59.55 43.65Q56.64 45.85 52.12 45.85Q46.44 45.85 43.10 42.35Q39.77 38.84 39.77 32.52Q39.77 25.98 43.14 22.36Q46.51 18.75 51.88 18.75Q57.08 18.75 60.38 22.29Q63.67 25.83 63.67 32.25Q63.67 32.64 63.65 33.42L44.31 33.42Q44.56 37.70 46.73 39.97Q48.90 42.24 52.15 42.24Q54.57 42.24 56.27 40.97Q57.98 39.70 58.98 36.91M44.56 29.81L59.03 29.81Q58.74 26.54 57.37 24.90Q55.27 22.36 51.93 22.36Q48.90 22.36 46.84 24.39Q44.78 26.42 44.56 29.81ZM86.79 36.91L91.33 37.48Q90.26 41.46 87.35 43.65Q84.45 45.85 79.93 45.85Q74.24 45.85 70.91 42.35Q67.58 38.84 67.58 32.52Q67.58 25.98 70.95 22.36Q74.32 18.75 79.69 18.75Q84.89 18.75 88.18 22.29Q91.48 25.83 91.48 32.25Q91.48 32.64 91.46 33.42L72.12 33.42Q72.36 37.70 74.54 39.97Q76.71 42.24 79.96 42.24Q82.37 42.24 84.08 40.97Q85.79 39.70 86.79 36.91M72.36 29.81L86.84 29.81Q86.55 26.54 85.18 24.90Q83.08 22.36 79.74 22.36Q76.71 22.36 74.65 24.39Q72.58 26.42 72.36 29.81ZM106.45 41.33L107.08 45.21Q105.22 45.61 103.76 45.61Q101.37 45.61 100.05 44.85Q98.73 44.09 98.19 42.86Q97.66 41.63 97.66 37.67L97.66 22.75L94.43 22.75L94.43 19.34L97.66 19.34L97.66 12.92L102.03 10.28L102.03 19.34L106.45 19.34L106.45 22.75L102.03 22.75L102.03 37.92Q102.03 39.79 102.26 40.33Q102.49 40.87 103.02 41.19Q103.54 41.50 104.52 41.50Q105.25 41.50 106.45 41.33ZM136.84 32.71L141.58 33.91Q140.09 39.75 136.22 42.81Q132.35 45.87 126.76 45.87Q120.97 45.87 117.35 43.52Q113.72 41.16 111.83 36.69Q109.94 32.23 109.94 27.10Q109.94 21.51 112.07 17.35Q114.21 13.18 118.15 11.02Q122.09 8.86 126.83 8.86Q132.20 8.86 135.86 11.60Q139.53 14.33 140.97 19.29L136.30 20.39Q135.06 16.48 132.69 14.70Q130.32 12.92 126.73 12.92Q122.61 12.92 119.84 14.89Q117.07 16.87 115.94 20.20Q114.82 23.54 114.82 27.08Q114.82 31.64 116.15 35.05Q117.48 38.45 120.29 40.14Q123.10 41.82 126.37 41.82Q130.35 41.82 133.11 39.53Q135.86 37.23 136.84 32.71ZM146.75 45.26L146.75 9.47L151.15 9.47L151.15 45.26L146.75 45.26ZM157.98 14.53L157.98 9.47L162.38 9.47L162.38 14.53L157.98 14.53M157.98 45.26L157.98 19.34L162.38 19.34L162.38 45.26L157.98 45.26ZM185.60 55.20L185.60 42.50Q184.57 43.95 182.73 44.90Q180.88 45.85 178.81 45.85Q174.19 45.85 170.86 42.16Q167.53 38.48 167.53 32.06Q167.53 28.15 168.88 25.05Q170.24 21.95 172.81 20.35Q175.39 18.75 178.47 18.75Q183.28 18.75 186.04 22.80L186.04 19.34L189.99 19.34L189.99 55.20L185.60 55.20M172.05 32.23Q172.05 37.23 174.15 39.73Q176.25 42.24 179.17 42.24Q181.98 42.24 184.01 39.86Q186.04 37.48 186.04 32.62Q186.04 27.44 183.90 24.83Q181.76 22.22 178.88 22.22Q176.03 22.22 174.04 24.65Q172.05 27.08 172.05 32.23ZM213.87 45.26L213.87 41.46Q210.84 45.85 205.64 45.85Q203.34 45.85 201.35 44.97Q199.37 44.09 198.40 42.76Q197.44 41.43 197.05 39.50Q196.78 38.21 196.78 35.40L196.78 19.34L201.17 19.34L201.17 33.72Q201.17 37.16 201.44 38.35Q201.86 40.09 203.20 41.08Q204.54 42.07 206.52 42.07Q208.50 42.07 210.23 41.05Q211.96 40.04 212.68 38.29Q213.40 36.55 213.40 33.23L213.40 19.34L217.80 19.34L217.80 45.26L213.87 45.26ZM242.43 36.91L246.97 37.48Q245.90 41.46 242.99 43.65Q240.09 45.85 235.57 45.85Q229.88 45.85 226.55 42.35Q223.22 38.84 223.22 32.52Q223.22 25.98 226.59 22.36Q229.96 18.75 235.33 18.75Q240.53 18.75 243.82 22.29Q247.12 25.83 247.12 32.25Q247.12 32.64 247.09 33.42L227.76 33.42Q228.00 37.70 230.18 39.97Q232.35 42.24 235.60 42.24Q238.01 42.24 239.72 40.97Q241.43 39.70 242.43 36.91M228.00 29.81L242.48 29.81Q242.19 26.54 240.82 24.90Q238.72 22.36 235.38 22.36Q232.35 22.36 230.29 24.39Q228.22 26.42 228.00 29.81Z"/>
    </g>
  </g>
</svg>
